<svg id="nd-fireplace" width="100%" height="100%" version="1.1" viewBox="0 0 210 297" xmlns="http://www.w3.org/2000/svg">
 <g fill="red" transform="matrix(.89573 0 0 .89573 9.0459 10.953)">
  <path d="m75.816 196.58c1.2614-1.3392 2.4856-2.5711 3.6104-3.7423h2e-6c3.1548-3.3803 6.0191-6.5617 8.0244-10.034 3.2824-5.7035 4.6985-11.931 3.5892-17.492-0.74294-4.4364-5.0053-12.479-5.4908-13.511-0.5413-1.1478-0.81327-1.7827-0.81327-1.7827s0.5664 0.39732 1.5988 1.1229c1.2536 0.87905 8.0243 5.1768 12.029 10.833 4.3662 6.5035 6.6565 16.368 3.4816 26.641-1.8529 6.0898-5.0168 11.562-8.839 16.135h-3e-6c-1.3145 1.6094-2.632 3.0634-3.8851 4.3882-2.0949 2.2149-4.0816 4.1422-5.6608 5.9956-3.0557 3.481-5.6152 7.4944-7.4361 11.807-1.4463 3.701-2.4683 6.9042-2.284 10.045 0.08521 3.0176 1.1973 5.893 2.7175 8.1133 3.373 4.9422 7.778 6.267 7.778 6.267s-4.4714 1.5277-11.214-2.2643c-3.0699-1.7311-6.4323-4.7526-8.5916-9.3679-2.1457-4.7885-2.8868-10.424-2.1588-16.007 0.71626-6.5551 3.0004-13.237 7.0301-19.21 2.1312-3.0965 4.4089-5.702 6.5149-7.9378z"/>
  <path d="m126.91 187.55c3.202 2.6135 7.0041 5.4325 10.638 8.7084 6.4146 5.6276 11.495 12.6 13.743 20.41 1.8664 6.9814 1.0522 13.494-0.55334 18.591-3.5977 11.536-10.145 16.436-10.145 16.436s4.0569-6.7618 4.2424-17.305c0.0651-4.648-0.70235-9.9938-3.1787-14.63-2.6539-5.2976-7.4806-9.6553-13.201-14.088-3.3802-2.5384-7.2363-5.0957-11.008-8.1801-0.80258-0.65626-1.6065-1.3402-2.4054-2.0555-4.911-4.4197-8.9684-9.623-11.932-15.307-2.7328-5.2644-4.3903-10.672-5.2247-15.879-1.0472-6.3113-0.77814-12.163 0.55809-17.272 1.5841-5.9728 4.5386-10.306 6.7722-12.943 2.2715-2.6822 3.8906-3.8791 3.8906-3.8791s-1.0652 1.6597-2.269 4.7218c-1.2016 3.0564-2.4498 7.5192-2.3184 12.778 0.0922 4.5131 1.193 9.1862 3.1912 14.361 1.6679 4.2421 3.856 8.437 6.6183 12.338 2.9721 4.217 6.5771 8.0551 10.572 11.507 0.64902 0.56453 1.3209 1.1256 2.0097 1.6878z"/>
  <path d="m117.7 196.36c2.2644 1.7354 4.9533 3.6072 7.5235 5.7824 4.5364 3.7367 8.1291 8.3661 9.7188 13.552 1.32 4.6357 0.7441 8.9601-0.39133 12.345-2.5443 7.6598-7.1744 10.913-7.1744 10.913s2.869-4.4898 3.0002-11.49c0.046-3.0862-0.4967-6.6358-2.248-9.7141-1.8768-3.5176-5.2903-6.4111-9.3354-9.3547-2.3904-1.6855-5.1175-3.3835-7.7851-5.4315-0.56758-0.43576-1.1361-0.88992-1.7011-1.3649-3.4731-2.9347-6.3425-6.3897-8.4384-10.164-1.9326-3.4956-3.1048-7.0861-3.6949-10.543-0.74058-4.1907-0.55031-8.0763 0.39468-11.469 1.1203-3.966 3.2097-6.843 4.7893-8.5942 1.6064-1.781 2.7514-2.5757 2.7514-2.5757s-0.75335 1.1021-1.6046 3.1352c-0.84975 2.0294-1.7325 4.9927-1.6395 8.4847 0.0652 2.9967 0.84372 6.0996 2.2568 9.5356 1.1795 2.8167 2.7269 5.6022 4.6804 8.1922 2.1019 2.8001 4.6513 5.3486 7.4762 7.6406 0.45899 0.37485 0.93416 0.74739 1.4213 1.1207z"/>
  <path d="m26.941 262.95v-158.65h158.65v158.65" fill="none" stroke="#000" stroke-width="24.179" style="paint-order:markers fill stroke"/>
  <path d="m-6.5481 65.101h225.63" fill="none" stroke="#000" stroke-width="27.758"/>
 </g>
</svg>
